<svg xmlns="http://www.w3.org/2000/svg" viewBox="0 0 500 500"><g id="freepik--background-complete--inject-2"><path d="M427.83,408H406.3c2.4-18.25,6.62-45.07,5.2-70.92h9.57C419.65,362.91,423.87,389.73,427.83,408Z" style="fill:#f0f0f0"></path><path d="M454.47,355.06s-7,1.43-10.87-.89-4.63.52-8-.52a40.54,40.54,0,0,1-7.5-3.61s-1.55,2.58-4.13,1.29-5.92-5.42-5.92-5.42-3.1,6.45-6.71,9.29-3.36-4.64-3.36-4.64a66.31,66.31,0,0,1-7.74,7.74c-3.61,2.84-1.81-5.42-1.81-5.42s-6.19,4.89-9,6.68-2.58-3.58-2.58-3.58a14.6,14.6,0,0,0-7.22,2.82c-1.54,1.2-1.7.17-1.44-1.29a10.75,10.75,0,0,1,3.27-5.85c10.26-9.59,18-22,23.37-32.76a160.86,160.86,0,0,0,9.68-23.8c.22-.66.32-1,.32-1s.12.33.36.94c1,2.57,3.84,10.06,8.08,19C430.64,329.57,442.1,349.48,454.47,355.06Z" style="fill:#f5f5f5"></path><path d="M451.59,309.55s-6.46,1.31-10-.83-4.3.48-7.38-.48a36.35,36.35,0,0,1-6.93-3.33,2.93,2.93,0,0,1-3.81,1.19c-2.39-1.19-5.49-5-5.49-5s-2.87,5.95-6.2,8.58-3.1-4.29-3.1-4.29a60.1,60.1,0,0,1-7.16,7.15c-3.33,2.62-1.66-5-1.66-5s-5.73,4.53-8.35,6.18-2.39-3.31-2.39-3.31A13.56,13.56,0,0,0,382.4,313c-1.41,1.09-1.57.15-1.32-1.2a10,10,0,0,1,3-5.42c9.46-8.84,16.58-20.26,21.58-30.24a147,147,0,0,0,9.27-23s2.93,8.16,7.78,18.37C429.54,285.94,440.13,304.37,451.59,309.55Z" style="fill:#f5f5f5"></path><path d="M447.25,268s-5.68,1.17-8.8-.71-3.78.41-6.48-.43A33.12,33.12,0,0,1,425.9,264a2.6,2.6,0,0,1-3.35,1c-2.1-1-4.82-4.39-4.82-4.39s-2.51,5.23-5.43,7.53-2.73-3.77-2.73-3.77a52.92,52.92,0,0,1-6.27,6.28c-2.93,2.29-1.46-4.4-1.46-4.4s-5,4-7.32,5.43-2.09-2.92-2.09-2.92a12.07,12.07,0,0,0-5.86,2.3c-1.25,1-1.39.14-1.17-1a8.73,8.73,0,0,1,2.65-4.74c7.59-7.1,13.44-16,17.75-24.21a129,129,0,0,0,9.31-22.47s2.93,8.12,7.66,17.86C428.76,248.78,437.66,263.69,447.25,268Z" style="fill:#f5f5f5"></path><path d="M445.5,232.5s-5.35,1.09-8.3-.68-3.55.39-6.12-.39a31.13,31.13,0,0,1-5.73-2.78,2.43,2.43,0,0,1-3.16,1c-2-1-4.54-4.14-4.54-4.14s-2.37,4.94-5.13,7.11-2.56-3.56-2.56-3.56A50.78,50.78,0,0,1,404,235c-2.76,2.17-1.37-4.14-1.37-4.14s-4.75,3.74-6.91,5.1-2-2.74-2-2.74a11.3,11.3,0,0,0-5.53,2.18c-1.16.89-1.3.11-1.1-1a8.37,8.37,0,0,1,2.5-4.48c7.5-7,13.22-16,17.33-24a121.13,121.13,0,0,0,8.21-20.08s2.57,7.14,6.77,15.91C427.61,213.57,436.21,228.31,445.5,232.5Z" style="fill:#f5f5f5"></path><path d="M445.5,198.76s-5.35,1.09-8.31-.68-3.55.39-6.1-.4a31.17,31.17,0,0,1-5.74-2.76,2.44,2.44,0,0,1-3.16,1c-2-1-4.54-4.15-4.54-4.15s-2.37,4.94-5.13,7.11-2.56-3.56-2.56-3.56a50.21,50.21,0,0,1-5.93,5.92c-2.76,2.18-1.38-4.14-1.38-4.14s-4.73,3.75-6.9,5.12-2-2.75-2-2.75a11.29,11.29,0,0,0-5.52,2.17c-1.18.9-1.31.12-1.1-1a8.23,8.23,0,0,1,2.49-4.48c17.76-16.61,25.54-44,25.54-44S429.32,191.45,445.5,198.76Z" style="fill:#f5f5f5"></path><path d="M109.12,410.21H87.59c2.4-18.24,6.62-45.06,5.2-70.92h9.56C100.93,365.15,105.15,392,109.12,410.21Z" style="fill:#f0f0f0"></path><path d="M135.76,357.3s-7,1.42-10.87-.89-4.63.52-8-.53a40.79,40.79,0,0,1-7.5-3.6s-1.55,2.57-4.13,1.29-5.93-5.42-5.93-5.42-3.1,6.44-6.7,9.28-3.36-4.63-3.36-4.63a66.58,66.58,0,0,1-7.74,7.73c-3.61,2.84-1.81-5.41-1.81-5.41s-6.19,4.89-9,6.68-2.58-3.58-2.58-3.58A14.58,14.58,0,0,0,60.93,361c-1.54,1.19-1.7.17-1.44-1.29a10.8,10.8,0,0,1,3.26-5.86c10.26-9.58,18-21.94,23.38-32.75a160.86,160.86,0,0,0,9.68-23.8c.22-.66.32-1,.32-1l.35.95c1,2.57,3.85,10.06,8.08,19C111.93,331.81,123.38,351.71,135.76,357.3Z" style="fill:#f5f5f5"></path><path d="M132.88,311.78s-6.46,1.32-10-.82-4.29.48-7.37-.48a37,37,0,0,1-6.93-3.33,3,3,0,0,1-3.82,1.19c-2.38-1.19-5.48-5-5.48-5s-2.87,6-6.2,8.59-3.1-4.29-3.1-4.29a61.22,61.22,0,0,1-7.16,7.14c-3.34,2.62-1.66-5-1.66-5s-5.74,4.52-8.36,6.18-2.38-3.32-2.38-3.32a13.67,13.67,0,0,0-6.68,2.62c-1.42,1.1-1.57.15-1.32-1.19a9.94,9.94,0,0,1,3-5.42C74.85,299.79,82,288.38,87,278.4a146.5,146.5,0,0,0,9.28-23s2.93,8.16,7.78,18.37C110.83,288.18,121.42,306.61,132.88,311.78Z" style="fill:#f5f5f5"></path><path d="M128.54,270.25s-5.68,1.16-8.81-.72-3.77.42-6.47-.42a33.36,33.36,0,0,1-6.08-2.92,2.58,2.58,0,0,1-3.34,1c-2.1-1-4.82-4.39-4.82-4.39s-2.51,5.23-5.43,7.53-2.73-3.77-2.73-3.77a53.79,53.79,0,0,1-6.27,6.28c-2.93,2.29-1.47-4.4-1.47-4.4s-5,4-7.31,5.43-2.1-2.92-2.1-2.92a12,12,0,0,0-5.85,2.3c-1.25,1-1.39.14-1.17-1a8.73,8.73,0,0,1,2.65-4.75c7.58-7.09,13.44-16,17.75-24.21a129,129,0,0,0,9.31-22.47s2.92,8.13,7.66,17.86C110.05,251,119,265.93,128.54,270.25Z" style="fill:#f5f5f5"></path><path d="M126.79,234.73s-5.35,1.1-8.3-.67-3.56.39-6.12-.4a30.69,30.69,0,0,1-5.73-2.77,2.43,2.43,0,0,1-3.16,1c-2-1-4.54-4.14-4.54-4.14s-2.37,4.94-5.13,7.1-2.57-3.55-2.57-3.55a50.33,50.33,0,0,1-5.92,5.93c-2.76,2.16-1.37-4.15-1.37-4.15s-4.75,3.75-6.92,5.11-2-2.75-2-2.75a11.42,11.42,0,0,0-5.53,2.18c-1.17.9-1.3.11-1.1-1a8.28,8.28,0,0,1,2.5-4.47c7.5-7,13.22-16,17.32-24a121.1,121.1,0,0,0,8.22-20.08S99,195.24,103.23,204C108.9,215.8,117.5,230.55,126.79,234.73Z" style="fill:#f5f5f5"></path><path d="M126.79,201s-5.35,1.1-8.31-.68-3.55.4-6.1-.39a30.8,30.8,0,0,1-5.74-2.76,2.44,2.44,0,0,1-3.16,1c-2-1-4.54-4.14-4.54-4.14s-2.37,4.93-5.13,7.1-2.57-3.55-2.57-3.55a49.77,49.77,0,0,1-5.92,5.92c-2.76,2.17-1.38-4.14-1.38-4.14s-4.74,3.75-6.91,5.11-2-2.74-2-2.74a11.22,11.22,0,0,0-5.53,2.17c-1.17.9-1.3.12-1.09-1a8.19,8.19,0,0,1,2.49-4.48c17.76-16.61,25.54-44.05,25.54-44.05S110.61,193.69,126.79,201Z" style="fill:#f5f5f5"></path><path d="M215.58,407.47H194.05c4.43-24.47,6.62-98.06,5.2-123.92h9.57C207.4,309.41,211.14,382.67,215.58,407.47Z" style="fill:#f0f0f0"></path><path d="M242.22,301.55s-7,1.43-10.87-.89-4.63.52-8-.52a40.42,40.42,0,0,1-7.51-3.61s-1.55,2.58-4.13,1.29-5.92-5.42-5.92-5.42-3.1,6.45-6.71,9.29-3.36-4.64-3.36-4.64a66.31,66.31,0,0,1-7.74,7.74c-3.61,2.84-1.81-5.42-1.81-5.42s-6.18,4.9-9,6.68-2.58-3.58-2.58-3.58a14.67,14.67,0,0,0-7.22,2.83c-1.53,1.19-1.7.16-1.44-1.29a10.78,10.78,0,0,1,3.27-5.86c10.26-9.59,18-21.95,23.37-32.76a159.69,159.69,0,0,0,9.68-23.8c.22-.66.32-1,.32-1s.12.33.36.94c1,2.57,3.84,10.06,8.08,19C218.39,276.06,229.85,296,242.22,301.55Z" style="fill:#f5f5f5"></path><path d="M239.34,256s-6.46,1.31-10-.83-4.3.48-7.38-.48A36.35,36.35,0,0,1,215,251.4a2.93,2.93,0,0,1-3.81,1.19c-2.39-1.19-5.49-5-5.49-5s-2.87,5.95-6.2,8.58-3.1-4.29-3.1-4.29a60.1,60.1,0,0,1-7.16,7.15c-3.33,2.62-1.66-5-1.66-5s-5.73,4.53-8.35,6.19-2.39-3.32-2.39-3.32a13.56,13.56,0,0,0-6.68,2.62c-1.41,1.09-1.56.15-1.32-1.2a9.94,9.94,0,0,1,3-5.41c9.46-8.85,16.58-20.26,21.58-30.25a146.54,146.54,0,0,0,9.27-23s2.94,8.16,7.78,18.37C217.29,232.43,227.88,250.87,239.34,256Z" style="fill:#f5f5f5"></path><path d="M235,214.5s-5.68,1.17-8.8-.71-3.77.41-6.48-.43a32.43,32.43,0,0,1-6.07-2.92,2.59,2.59,0,0,1-3.35,1c-2.1-1-4.82-4.39-4.82-4.39s-2.51,5.23-5.43,7.53-2.73-3.77-2.73-3.77a52.92,52.92,0,0,1-6.27,6.28c-2.93,2.3-1.46-4.4-1.46-4.4s-5,4-7.32,5.43-2.09-2.92-2.09-2.92a12.06,12.06,0,0,0-5.86,2.31c-1.25,1-1.39.13-1.17-1.05a8.73,8.73,0,0,1,2.65-4.74c7.59-7.09,13.44-16,17.75-24.21a129,129,0,0,0,9.31-22.47s2.93,8.12,7.66,17.86C216.51,195.27,225.42,210.18,235,214.5Z" style="fill:#f5f5f5"></path><path d="M233.25,179s-5.35,1.09-8.3-.67-3.55.38-6.12-.4a31.38,31.38,0,0,1-5.73-2.77,2.43,2.43,0,0,1-3.16,1c-2-1-4.54-4.14-4.54-4.14s-2.37,4.94-5.13,7.11-2.56-3.56-2.56-3.56a50.78,50.78,0,0,1-5.93,5.93c-2.76,2.17-1.37-4.14-1.37-4.14s-4.75,3.74-6.91,5.1-2-2.74-2-2.74a11.3,11.3,0,0,0-5.53,2.18c-1.16.89-1.3.11-1.09-1a8.29,8.29,0,0,1,2.49-4.48c7.51-7,13.22-16,17.33-24a121.13,121.13,0,0,0,8.21-20.08s2.57,7.15,6.77,15.91C215.36,160.06,224,174.8,233.25,179Z" style="fill:#f5f5f5"></path><path d="M233.25,145.25s-5.35,1.1-8.31-.68-3.55.39-6.1-.4a31.17,31.17,0,0,1-5.74-2.76,2.44,2.44,0,0,1-3.16,1c-2-1-4.54-4.15-4.54-4.15s-2.36,4.94-5.13,7.11-2.56-3.55-2.56-3.55a50.64,50.64,0,0,1-5.92,5.92c-2.77,2.17-1.39-4.15-1.39-4.15s-4.73,3.75-6.9,5.12-2-2.75-2-2.75a11.29,11.29,0,0,0-5.52,2.17c-1.18.91-1.31.12-1.1-1a8.29,8.29,0,0,1,2.49-4.48c17.76-16.61,25.54-44,25.54-44S217.07,137.94,233.25,145.25Z" style="fill:#f5f5f5"></path><path d="M444.71,349.14H264a5.87,5.87,0,0,1-5.86-5.86V80A5.87,5.87,0,0,1,264,74.15H444.71A5.87,5.87,0,0,1,450.57,80V343.28A5.87,5.87,0,0,1,444.71,349.14ZM264,74.4A5.61,5.61,0,0,0,258.35,80V343.28a5.61,5.61,0,0,0,5.61,5.61H444.71a5.61,5.61,0,0,0,5.61-5.61V80a5.61,5.61,0,0,0-5.61-5.61Z" style="fill:#f0f0f0"></path><path d="M236.28,349.14H55.53a5.87,5.87,0,0,1-5.86-5.86V80a5.87,5.87,0,0,1,5.86-5.86H236.28A5.87,5.87,0,0,1,242.14,80V343.28A5.87,5.87,0,0,1,236.28,349.14ZM55.53,74.4A5.61,5.61,0,0,0,49.92,80V343.28a5.61,5.61,0,0,0,5.61,5.61H236.28a5.61,5.61,0,0,0,5.61-5.61V80a5.61,5.61,0,0,0-5.61-5.61Z" style="fill:#f0f0f0"></path><rect y="410.21" width="500" height="0.25" style="fill:#f0f0f0"></rect><rect x="38.34" y="361.13" width="432.66" height="16.02" style="fill:#e0e0e0"></rect><polygon points="471 410.21 471 332.29 461.78 318.37 452.56 332.29 452.56 410.21 471 410.21" style="fill:#e6e6e6"></polygon><polygon points="429.57 410.21 429.57 332.29 420.35 318.37 411.14 332.29 411.14 410.21 429.57 410.21" style="fill:#e6e6e6"></polygon><polygon points="388.15 410.21 388.15 332.29 378.93 318.37 369.71 332.29 369.71 410.21 388.15 410.21" style="fill:#e6e6e6"></polygon><polygon points="346.74 410.21 346.74 332.29 337.52 318.37 328.31 332.29 328.31 410.21 346.74 410.21" style="fill:#e6e6e6"></polygon><polygon points="305.32 410.21 305.32 332.29 296.1 318.37 286.88 332.29 286.88 410.21 305.32 410.21" style="fill:#e6e6e6"></polygon><polygon points="263.89 410.21 263.89 332.29 254.68 318.37 245.46 332.29 245.46 410.21 263.89 410.21" style="fill:#e6e6e6"></polygon><polygon points="222.47 410.21 222.47 332.29 213.25 318.37 204.03 332.29 204.03 410.21 222.47 410.21" style="fill:#e6e6e6"></polygon><polygon points="181.05 410.21 181.05 332.29 171.83 318.37 162.61 332.29 162.61 410.21 181.05 410.21" style="fill:#e6e6e6"></polygon><polygon points="139.62 410.21 139.62 332.29 130.41 318.37 121.19 332.29 121.19 410.21 139.62 410.21" style="fill:#e6e6e6"></polygon><polygon points="98.2 410.21 98.2 332.29 88.98 318.37 79.76 332.29 79.76 410.21 98.2 410.21" style="fill:#e6e6e6"></polygon><polygon points="56.78 410.21 56.78 332.29 47.56 318.37 38.34 332.29 38.34 410.21 56.78 410.21" style="fill:#e6e6e6"></polygon><path d="M122.15,140.61c0-8.11-4.64-10.79-8.22-11.28-5.87-.79-10.06,3.67-10.06,3.67s-3.19-10.75-14.71-10.75S74.09,134,74.09,134a14.75,14.75,0,0,0-10.93-2.48c-4.53.76-7.22,4.09-10.13,9.1Z" style="fill:#f5f5f5"></path><path d="M434,110.46c0-10.47-6-13.94-10.62-14.56-7.58-1-13,4.73-13,4.73s-4.11-13.88-19-13.88-19.46,15.17-19.46,15.17a19.08,19.08,0,0,0-14.12-3.21c-5.84,1-9.32,5.29-13.08,11.75Z" style="fill:#f5f5f5"></path><path d="M273.77,161s4.05-10,14.06-11.09,14.82,5.55,14.82,5.55,7.84-13.95,23.1-12c16.75,2.19,15.79,17.5,15.79,17.5Z" style="fill:#f5f5f5"></path><circle cx="149.26" cy="102.78" r="19.47" style="fill:#f5f5f5"></circle></g><g id="freepik--Shadow--inject-2"><ellipse cx="255.07" cy="438.09" rx="233.94" ry="8.85" style="fill:#e6e6e6;opacity:0.9"></ellipse></g><g id="freepik--Shed--inject-2"><polygon points="392.66 159.96 392.66 437.84 166.27 437.84 166.27 207.49 344.34 170.1 392.66 159.96" style="fill:#407BFF"></polygon><polygon points="392.66 159.97 392.66 437.83 166.27 437.83 166.27 207.5 211.13 198.07 216.78 196.88 276.31 184.38 281.96 183.2 341.55 170.69 344.35 170.1 347.15 169.51 392.66 159.97" style="opacity:0.2"></polygon><polygon points="344.35 170.1 344.35 437.83 117.95 437.83 117.95 217.63 145.93 211.75 151.59 210.57 166.27 207.5 211.13 198.07 216.78 196.88 276.31 184.38 281.96 183.2 341.55 170.69 344.35 170.1" style="fill:#407BFF"></polygon><polygon points="392.66 169.51 392.66 170.69 341.55 170.69 344.34 170.1 347.15 169.51 392.66 169.51" style="opacity:0.2"></polygon><polygon points="392.66 183.2 392.66 184.38 276.31 184.38 281.96 183.2 392.66 183.2" style="opacity:0.2"></polygon><polygon points="392.66 196.88 392.66 198.07 211.13 198.07 216.78 196.88 392.66 196.88" style="opacity:0.2"></polygon><polygon points="392.66 210.57 392.66 211.76 145.93 211.76 151.59 210.57 392.66 210.57" style="opacity:0.2"></polygon><rect x="117.95" y="224.26" width="274.71" height="1.19" style="opacity:0.2"></rect><rect x="117.95" y="237.94" width="274.71" height="1.19" style="opacity:0.2"></rect><rect x="117.95" y="251.64" width="274.71" height="1.19" style="opacity:0.2"></rect><rect x="117.95" y="265.33" width="274.71" height="1.19" style="opacity:0.2"></rect><rect x="117.95" y="279.01" width="274.71" height="1.19" style="opacity:0.2"></rect><rect x="117.95" y="292.7" width="274.71" height="1.19" style="opacity:0.2"></rect><rect x="117.95" y="306.39" width="274.71" height="1.19" style="opacity:0.2"></rect><rect x="117.95" y="320.09" width="274.71" height="1.18" style="opacity:0.2"></rect><rect x="117.95" y="333.77" width="274.71" height="1.19" style="opacity:0.2"></rect><rect x="117.95" y="347.46" width="274.71" height="1.19" style="opacity:0.2"></rect><rect x="117.95" y="361.15" width="274.71" height="1.19" style="opacity:0.2"></rect><rect x="117.95" y="374.83" width="274.71" height="1.19" style="opacity:0.2"></rect><rect x="117.95" y="388.52" width="274.71" height="1.19" style="opacity:0.2"></rect><rect x="117.95" y="402.22" width="274.71" height="1.19" style="opacity:0.2"></rect><rect x="117.95" y="415.9" width="274.71" height="1.19" style="opacity:0.2"></rect><rect x="117.95" y="429.59" width="274.71" height="1.19" style="opacity:0.2"></rect><rect x="145.68" y="274.01" width="80" height="163.82" style="fill:#263238"></rect><rect x="145.68" y="274.01" width="80" height="163.82" style="fill:#fff;opacity:0.1"></rect><rect x="145.68" y="433.16" width="80" height="4.68" style="fill:#263238"></rect><rect x="163.46" y="294.33" width="42.38" height="49.9" style="fill:#263238"></rect><polygon points="205.84 318.01 205.84 320.55 185.9 320.55 185.9 344.23 183.39 344.23 183.39 320.55 163.46 320.55 163.46 318.01 183.39 318.01 183.39 294.33 185.9 294.33 185.9 318.01 205.84 318.01" style="fill:#263238"></polygon><polygon points="205.84 318.01 205.84 320.55 185.9 320.55 185.9 344.23 183.39 344.23 183.39 320.55 163.46 320.55 163.46 318.01 183.39 318.01 183.39 294.33 185.9 294.33 185.9 318.01 205.84 318.01" style="fill:#fff;opacity:0.1"></polygon><g style="opacity:0.2"><path d="M160.31,370.25a3.71,3.71,0,1,1-3.71-3.75A3.73,3.73,0,0,1,160.31,370.25Z" style="fill:#fff"></path></g><rect x="140.03" y="271.34" width="91.12" height="4.81" style="fill:#263238"></rect><polygon points="392.66 159.97 392.66 165.69 344.35 176.75 166.27 217.49 117.95 228.55 117.95 217.63 145.93 211.75 151.59 210.57 166.27 207.5 211.13 198.07 216.78 196.88 276.31 184.38 281.96 183.2 341.55 170.69 344.35 170.1 347.15 169.51 392.66 159.97" style="opacity:0.2"></polygon><rect x="261.92" y="273.24" width="60.74" height="61.3" style="fill:#263238"></rect><rect x="261.92" y="273.24" width="60.74" height="61.3" style="fill:#407BFF"></rect><rect x="261.92" y="273.24" width="60.74" height="61.3" style="fill:#fff;opacity:0.30000000000000004"></rect><rect x="264.62" y="275.97" width="55.33" height="55.84" style="fill:#263238"></rect><polygon points="319.95 302.08 319.95 305.12 293.8 305.12 293.8 331.81 290.77 331.81 290.77 305.12 264.62 305.12 264.62 302.08 290.77 302.08 290.77 275.97 293.8 275.97 293.8 302.08 319.95 302.08" style="fill:#407BFF"></polygon><polygon points="319.95 302.08 319.95 305.12 293.8 305.12 293.8 331.81 290.77 331.81 290.77 305.12 264.62 305.12 264.62 302.08 290.77 302.08 290.77 275.97 293.8 275.97 293.8 302.08 319.95 302.08" style="fill:#fff;opacity:0.30000000000000004"></polygon><rect x="258.32" y="268.43" width="67.95" height="4.81" style="fill:#407BFF"></rect><rect x="258.32" y="268.43" width="67.95" height="4.81" style="fill:#fff;opacity:0.30000000000000004"></rect><rect x="258.32" y="334.65" width="67.95" height="4.81" style="fill:#407BFF"></rect><rect x="258.32" y="334.65" width="67.95" height="4.81" style="fill:#fff;opacity:0.30000000000000004"></rect><path d="M370.27,256.93s-10,1.49-12.65-11.91C357.62,245,371.4,248.09,370.27,256.93Z" style="fill:#407BFF"></path><path d="M370.27,256.93s-10,1.49-12.65-11.91C357.62,245,371.4,248.09,370.27,256.93Z" style="fill:#fff;opacity:0.4"></path><path d="M369.75,244.33s-10.11,0-10.79-13.65C359,230.68,372.14,235.74,369.75,244.33Z" style="fill:#407BFF"></path><path d="M369.75,244.33s-10.11,0-10.79-13.65C359,230.68,372.14,235.74,369.75,244.33Z" style="fill:#fff;opacity:0.4"></path><path d="M369.61,237s9.94-1.81,8.22-15.37C377.83,221.64,365.74,229,369.61,237Z" style="fill:#407BFF"></path><path d="M369.61,237s9.94-1.81,8.22-15.37C377.83,221.64,365.74,229,369.61,237Z" style="fill:#fff;opacity:0.4"></path><path d="M370.8,251.15s10.11,0,10.79-13.65C381.59,237.5,368.41,242.57,370.8,251.15Z" style="fill:#407BFF"></path><path d="M370.8,251.15s10.11,0,10.79-13.65C381.59,237.5,368.41,242.57,370.8,251.15Z" style="fill:#fff;opacity:0.4"></path><path d="M369.33,262l-.14,0a.53.53,0,0,1-.36-.64c4.73-17.25-4.2-37.94-4.29-38.15a.53.53,0,0,1,.26-.69.52.52,0,0,1,.68.27c.09.21,9.16,21.24,4.34,38.85A.51.51,0,0,1,369.33,262Z" style="fill:#407BFF"></path><g style="opacity:0.4"><path d="M369.33,262l-.14,0a.53.53,0,0,1-.36-.64c4.73-17.25-4.2-37.94-4.29-38.15a.53.53,0,0,1,.26-.69.52.52,0,0,1,.68.27c.09.21,9.16,21.24,4.34,38.85A.51.51,0,0,1,369.33,262Z" style="fill:#fff"></path></g><polygon points="386.05 260.68 380.24 285.22 359.18 285.22 353.37 260.68 386.05 260.68" style="fill:#263238"></polygon><rect x="352.73" y="285.31" width="33.96" height="3.28" style="fill:#407BFF"></rect><rect x="352.73" y="285.31" width="33.96" height="3.28" style="fill:#fff;opacity:0.30000000000000004"></rect><rect x="340.64" y="172.21" width="3.71" height="265.62" style="fill:#407BFF"></rect><rect x="340.64" y="172.21" width="3.71" height="265.62" style="fill:#fff;opacity:0.4"></rect><rect x="114.24" y="218.09" width="3.71" height="219.75" style="fill:#407BFF"></rect><rect x="114.24" y="218.09" width="3.71" height="219.75" style="fill:#fff;opacity:0.4"></rect><rect x="392.66" y="157.72" width="3.71" height="280.11" style="fill:#407BFF"></rect><rect x="392.66" y="157.72" width="3.71" height="280.11" style="fill:#fff;opacity:0.2"></rect><polygon points="409.64 154.35 92.26 220.98 92.26 225.44 409.64 158.81 409.64 154.35"></polygon><path d="M92.26,221a8.14,8.14,0,0,1,6.24-5.15,8,8,0,0,1,7.52,2.26Z"></path><path d="M106.06,218.09a8.13,8.13,0,0,1,6.24-5.15,7.94,7.94,0,0,1,7.52,2.26Z"></path><path d="M119.86,215.19A8.17,8.17,0,0,1,126.1,210a7.94,7.94,0,0,1,7.52,2.26Z"></path><path d="M133.66,212.29a8.17,8.17,0,0,1,6.24-5.15,8,8,0,0,1,7.52,2.26Z"></path><path d="M147.46,209.39a8.17,8.17,0,0,1,6.24-5.15,8,8,0,0,1,7.52,2.26Z"></path><path d="M161.26,206.5a8.15,8.15,0,0,1,6.25-5.15,8,8,0,0,1,7.52,2.26Z"></path><path d="M175.06,203.6a8.17,8.17,0,0,1,6.25-5.15,8,8,0,0,1,7.52,2.26Z"></path><path d="M188.86,200.7a8.17,8.17,0,0,1,6.25-5.15,8,8,0,0,1,7.52,2.26Z"></path><path d="M202.67,197.81a8.13,8.13,0,0,1,6.24-5.15,7.94,7.94,0,0,1,7.52,2.26Z"></path><path d="M216.47,194.91a8.14,8.14,0,0,1,6.24-5.15,7.94,7.94,0,0,1,7.52,2.26Z"></path><path d="M230.27,192a8.14,8.14,0,0,1,6.24-5.15,7.94,7.94,0,0,1,7.52,2.26Z"></path><path d="M244.07,189.11a8.17,8.17,0,0,1,6.24-5.15,8,8,0,0,1,7.52,2.26Z"></path><path d="M257.87,186.22a8.15,8.15,0,0,1,6.24-5.15,7.94,7.94,0,0,1,7.52,2.26Z"></path><path d="M271.67,183.32a8.17,8.17,0,0,1,6.24-5.15,7.94,7.94,0,0,1,7.52,2.26Z"></path><path d="M285.47,180.42a8.17,8.17,0,0,1,6.25-5.15,8,8,0,0,1,7.52,2.26Z"></path><path d="M299.27,177.52a8.15,8.15,0,0,1,6.25-5.14,8,8,0,0,1,7.52,2.26Z"></path><path d="M313.07,174.63a8.15,8.15,0,0,1,6.25-5.15,7.94,7.94,0,0,1,7.52,2.26Z"></path><path d="M326.88,171.73a8.14,8.14,0,0,1,6.24-5.15,7.94,7.94,0,0,1,7.52,2.26Z"></path><path d="M340.68,168.83a8.14,8.14,0,0,1,6.24-5.15,8,8,0,0,1,7.52,2.26Z"></path><path d="M354.48,165.94a8.15,8.15,0,0,1,6.24-5.15,7.94,7.94,0,0,1,7.52,2.26Z"></path><path d="M368.28,163a8.17,8.17,0,0,1,6.24-5.15,7.94,7.94,0,0,1,7.52,2.26Z"></path><path d="M382.08,160.14a8.17,8.17,0,0,1,6.24-5.15,8,8,0,0,1,7.52,2.26Z"></path><path d="M395.88,157.24a8.17,8.17,0,0,1,6.25-5.15,8,8,0,0,1,7.51,2.26Z"></path></g><g id="freepik--plants-2--inject-2"><path d="M205.67,437.83a17.37,17.37,0,0,0-8.76-13c-9.39-5.51-21.79.18-21.79.18a8.29,8.29,0,0,0-3-7.44c-4.5-3.63-9.76-.55-9.76-.55s4.91-12.31-2.07-20.43c-6.06-7.05-14.69-3.76-14.69-3.76a26.44,26.44,0,0,0,.21-3.5c.05-.6.09-1.21.09-1.82a19,19,0,1,0-37.26,5.23c-1.48-.47-9-2.47-14.42,3.85-7,8.12-2.08,20.43-2.08,20.43s-5.25-3.08-9.76.55a8.3,8.3,0,0,0-3,7.44s-12.41-5.69-21.79-.18a17.37,17.37,0,0,0-8.76,13Z" style="fill:#407BFF"></path><path d="M205.67,437.83a17.37,17.37,0,0,0-8.76-13c-9.39-5.51-21.79.18-21.79.18a8.29,8.29,0,0,0-3-7.44c-4.5-3.63-9.76-.55-9.76-.55s4.91-12.31-2.07-20.43c-6.06-7.05-14.69-3.76-14.69-3.76a26.44,26.44,0,0,0,.21-3.5c.05-.6.09-1.21.09-1.82a19,19,0,1,0-37.26,5.23c-1.48-.47-9-2.47-14.42,3.85-7,8.12-2.08,20.43-2.08,20.43s-5.25-3.08-9.76.55a8.3,8.3,0,0,0-3,7.44s-12.41-5.69-21.79-.18a17.37,17.37,0,0,0-8.76,13Z" style="fill:#fff;opacity:0.30000000000000004"></path><path d="M357.62,437.84s0-20.53,20.7-18.39c0,0-.92-21.44,14.68-24.19,18.44-3.25,23.2,15.52,23.2,15.52s5.67-5.89,13.35-3.34,8.92,14,8.92,14a13,13,0,0,1,15.27-1.64c7.84,4.17,5.08,18,5.08,18Z" style="fill:#407BFF"></path><path d="M357.62,437.84s0-20.53,20.7-18.39c0,0-.92-21.44,14.68-24.19,18.44-3.25,23.2,15.52,23.2,15.52s5.67-5.89,13.35-3.34,8.92,14,8.92,14a13,13,0,0,1,15.27-1.64c7.84,4.17,5.08,18,5.08,18Z" style="fill:#fff;opacity:0.30000000000000004"></path><path d="M463.06,437.84c-.66-2.66-2.87-12.37.69-12.3,4.13.08,3.27,9.43,3.27,9.43s4.62-11.92,7.3-9c2.25,2.48-2.93,9.61-4.64,11.83Z" style="fill:#407BFF"></path><path d="M463.06,437.84c-.66-2.66-2.87-12.37.69-12.3,4.13.08,3.27,9.43,3.27,9.43s4.62-11.92,7.3-9c2.25,2.48-2.93,9.61-4.64,11.83Z" style="fill:#fff;opacity:0.6000000000000001"></path><path d="M47.65,437.83c.67-2.65,2.87-12.37-.69-12.3-4.13.09-3.27,9.44-3.27,9.44s-4.62-11.92-7.3-9c-2.25,2.48,2.93,9.61,4.65,11.82Z" style="fill:#407BFF"></path><path d="M47.65,437.83c.67-2.65,2.87-12.37-.69-12.3-4.13.09-3.27,9.44-3.27,9.44s-4.62-11.92-7.3-9c-2.25,2.48,2.93,9.61,4.65,11.82Z" style="fill:#fff;opacity:0.6000000000000001"></path><path d="M307.13,428.17s-10.05,0-10.73-13.46C296.4,414.71,309.52,419.71,307.13,428.17Z" style="fill:#407BFF"></path><path d="M307.13,428.17s-10.05,0-10.73-13.46C296.4,414.71,309.52,419.71,307.13,428.17Z" style="fill:#fff;opacity:0.4"></path><path d="M307,421s9.9-1.78,8.18-15.15C315.17,405.81,303.15,413.05,307,421Z" style="fill:#407BFF"></path><path d="M307,421s9.9-1.78,8.18-15.15C315.17,405.81,303.15,413.05,307,421Z" style="fill:#fff;opacity:0.4"></path><path d="M308.19,434.9s10.05,0,10.73-13.46C318.92,421.44,305.8,426.44,308.19,434.9Z" style="fill:#407BFF"></path><path d="M308.19,434.9s10.05,0,10.73-13.46C318.92,421.44,305.8,426.44,308.19,434.9Z" style="fill:#fff;opacity:0.4"></path><path d="M307.44,437.84h1c1.2-15.36-5.49-30.76-5.57-30.94a.51.51,0,0,0-.67-.26.5.5,0,0,0-.26.67C302,407.49,308.66,422.73,307.44,437.84Z" style="fill:#407BFF"></path><g style="opacity:0.4"><path d="M307.44,437.84h1c1.2-15.36-5.49-30.76-5.57-30.94a.51.51,0,0,0-.67-.26.5.5,0,0,0-.26.67C302,407.49,308.66,422.73,307.44,437.84Z" style="fill:#fff"></path></g></g><g id="freepik--Wood--inject-2"><path d="M46.7,328.21c-1.92-1.1-5.3,4.83-3.39,5.92l11.82,5.5.4.19,25.6,14.62,2.27-4L57.8,335.84l-.36-.25ZM46.48,331a.92.92,0,0,1,.33,1.24.9.9,0,0,1-1.23.33.89.89,0,0,1-.33-1.22A.9.9,0,0,1,46.48,331Z" style="fill:#407BFF"></path><path d="M46.7,328.21c-1.92-1.1-5.3,4.83-3.39,5.92l11.82,5.5,2.31-4Z" style="opacity:0.2"></path><path d="M97.88,356.9l-14.59-8.33A1.51,1.51,0,0,0,81,349.69a30.8,30.8,0,0,1-3.86,11.63,28,28,0,0,1-4.34,5.78,20.28,20.28,0,0,1-4.76,3.67l16.29,9.3a20.14,20.14,0,0,1,.74-6,28.32,28.32,0,0,1,2.77-6.68A29.09,29.09,0,0,1,97.88,356.9Z" style="fill:#263238"></path><path d="M72.85,367.1a20.05,20.05,0,0,1-4.77,3.67l16.3,9.31a19.69,19.69,0,0,1,.73-6C81.49,371.85,76.64,369.08,72.85,367.1Z" style="fill:#fff;opacity:0.2"></path><path d="M177.58,429.06c.37,6.32-3,11.66-7.45,11.92h-.44c-3.33-.05-6.31-2.94-7.64-7.1a15.43,15.43,0,0,1-.72-3.88c-.37-6.32,3.78-11.56,8.26-11.82h0a4.28,4.28,0,0,1,.62,0,6,6,0,0,1,4,1.88C176.14,422,177.36,425.26,177.58,429.06Z" style="fill:#407BFF"></path><g style="opacity:0.2"><path d="M177.58,429.06c.37,6.32-3,11.66-7.45,11.92h-.44c-3.33-.05-6.31-2.94-7.64-7.1a15.43,15.43,0,0,1-.72-3.88c-.37-6.32,3.78-11.56,8.26-11.82h0a4.28,4.28,0,0,1,.62,0,6,6,0,0,1,4,1.88C176.14,422,177.36,425.26,177.58,429.06Z" style="fill:#fff"></path></g><g style="opacity:0.2"><path d="M171,438.32H171c-2,0-4.07-2.08-5-5.11a12.14,12.14,0,0,1-.57-3.1c-.28-4.78,2.73-8.56,5.6-8.75h.34a3.32,3.32,0,0,1,2.26,1.09c1.4,1.41,2.34,4,2.51,7a11.12,11.12,0,0,1-1.29,6.16,4.73,4.73,0,0,1-3.56,2.67Zm.12-16H171c-2.37.15-4.94,3.57-4.7,7.73a11.66,11.66,0,0,0,.53,2.87c.83,2.6,2.54,4.42,4.15,4.45h.18a3.86,3.86,0,0,0,2.78-2.2,10.11,10.11,0,0,0,1.17-5.62c-.16-2.77-1-5.17-2.24-6.42a2.39,2.39,0,0,0-1.62-.81Z"></path></g><g style="opacity:0.2"><path d="M171.28,434.25h0c-1.15,0-2.23-1.09-2.76-2.73a7.25,7.25,0,0,1-.3-1.62c-.15-2.54,1.48-4.54,3-4.65h.11a1.89,1.89,0,0,1,1.38.62,6.59,6.59,0,0,1,.65,6.91,2.61,2.61,0,0,1-2,1.47Zm0-.95h0a1.72,1.72,0,0,0,1.26-1,4.9,4.9,0,0,0,.56-2.7,5,5,0,0,0-1.06-3.07,1,1,0,0,0-.65-.34c-1.16.07-2.36,1.71-2.25,3.64a5.79,5.79,0,0,0,.26,1.39C169.79,432.43,170.55,433.28,171.26,433.3Z"></path></g><path d="M169.69,441l0,0-44.24-1.19s-5.65-5.15-4.48-12.1c.48-2.87,2.13-6.05,5.82-9.31l42.76-.22h.62A10.59,10.59,0,0,0,163,428.85a16.27,16.27,0,0,0,.73,4.71A12.1,12.1,0,0,0,169.69,441Z" style="fill:#407BFF"></path><g style="opacity:0.4"><path d="M169.69,441l0,0-44.24-1.19s-5.65-5.15-4.48-12.1c.48-2.87,2.13-6.05,5.82-9.31l42.76-.22h.62A10.59,10.59,0,0,0,163,428.85a16.27,16.27,0,0,0,.73,4.71A12.1,12.1,0,0,0,169.69,441Z"></path></g><path d="M160.68,424.86h0l-35.85-.26a.44.44,0,0,1-.43-.44.44.44,0,0,1,.44-.44l35.85.27a.44.44,0,0,1,0,.87Z" style="opacity:0.2"></path><path d="M163.22,421.36h0l-35.85-.26a.43.43,0,0,1-.43-.44.44.44,0,0,1,.44-.44l35.85.26a.44.44,0,0,1,.43.45A.43.43,0,0,1,163.22,421.36Z" style="opacity:0.2"></path><path d="M160.56,429.24h0l-37.14-.87a.43.43,0,0,1-.42-.45.44.44,0,0,1,.44-.43l37.14.87a.44.44,0,0,1,0,.88Z" style="opacity:0.2"></path><path d="M160.82,433.59h0l-37.91-.6a.44.44,0,0,1,0-.88l37.91.6a.45.45,0,0,1,.43.45A.44.44,0,0,1,160.82,433.59Z" style="opacity:0.2"></path><path d="M162.92,438h0l-37.91-.6a.44.44,0,0,1-.44-.44.44.44,0,0,1,.45-.43l37.91.59a.44.44,0,0,1,.43.45A.43.43,0,0,1,162.92,438Z" style="opacity:0.2"></path><path d="M166.66,410.8c.36,6.32-3,11.66-7.46,11.92h-.43c-3.34-.05-6.31-2.94-7.65-7.1a15.89,15.89,0,0,1-.71-3.88c-.37-6.32,3.77-11.56,8.26-11.82h0a4.28,4.28,0,0,1,.62,0,6,6,0,0,1,4,1.88C165.21,403.75,166.43,407,166.66,410.8Z" style="fill:#407BFF"></path><g style="opacity:0.2"><path d="M166.66,410.8c.36,6.32-3,11.66-7.46,11.92h-.43c-3.34-.05-6.31-2.94-7.65-7.1a15.89,15.89,0,0,1-.71-3.88c-.37-6.32,3.77-11.56,8.26-11.82h0a4.28,4.28,0,0,1,.62,0,6,6,0,0,1,4,1.88C165.21,403.75,166.43,407,166.66,410.8Z" style="fill:#fff"></path></g><g style="opacity:0.2"><path d="M159.87,419.82h-.07c-2,0-4.07-2.09-5-5.11a12.14,12.14,0,0,1-.57-3.11c-.28-4.77,2.72-8.55,5.6-8.74h.33a3.3,3.3,0,0,1,2.27,1.09c1.4,1.41,2.34,4,2.51,7a11.06,11.06,0,0,1-1.3,6.16,4.72,4.72,0,0,1-3.56,2.67Zm.12-16h-.16c-2.36.16-4.94,3.57-4.69,7.74a11.74,11.74,0,0,0,.52,2.87c.84,2.59,2.54,4.42,4.16,4.44H160a3.9,3.9,0,0,0,2.78-2.2A10.14,10.14,0,0,0,164,411c-.16-2.76-1-5.16-2.24-6.41a2.37,2.37,0,0,0-1.62-.81Z"></path></g><g style="opacity:0.2"><path d="M160.11,415.75h0c-1.15,0-2.23-1.09-2.76-2.73a6.27,6.27,0,0,1-.3-1.62c-.15-2.54,1.48-4.55,3-4.65h.11a1.92,1.92,0,0,1,1.38.61,6.61,6.61,0,0,1,.65,6.92,2.59,2.59,0,0,1-2,1.46Zm0-1h0a1.68,1.68,0,0,0,1.26-1,4.84,4.84,0,0,0,.56-2.69,5,5,0,0,0-1.06-3.08,1,1,0,0,0-.65-.33c-1.17.07-2.36,1.71-2.25,3.64a5.19,5.19,0,0,0,.26,1.38C158.61,413.93,159.38,414.78,160.09,414.79Z"></path></g><path d="M158.77,422.73l0,0-44.23-1.19s-5.65-5.15-4.49-12.1c.49-2.87,2.13-6,5.83-9.31l42.76-.22h.62a10.58,10.58,0,0,0-7.24,10.66,16.27,16.27,0,0,0,.73,4.71A12.07,12.07,0,0,0,158.77,422.73Z" style="fill:#407BFF"></path><g style="opacity:0.30000000000000004"><path d="M158.77,422.73l0,0-44.23-1.19s-5.65-5.15-4.49-12.1c.49-2.87,2.13-6,5.83-9.31l42.76-.22h.62a10.58,10.58,0,0,0-7.24,10.66,16.27,16.27,0,0,0,.73,4.71A12.07,12.07,0,0,0,158.77,422.73Z"></path></g><path d="M149.76,406.6h0l-35.85-.26a.44.44,0,0,1-.44-.44.45.45,0,0,1,.45-.44l35.84.27a.44.44,0,0,1,.44.44A.43.43,0,0,1,149.76,406.6Z" style="opacity:0.2"></path><path d="M152.3,403.1h0l-35.85-.26a.44.44,0,0,1-.44-.44.44.44,0,0,1,.44-.44l35.85.26a.45.45,0,0,1,.44.45A.44.44,0,0,1,152.3,403.1Z" style="opacity:0.2"></path><path d="M149.64,411h0l-37.13-.87a.44.44,0,0,1-.43-.45.45.45,0,0,1,.45-.43l37.13.87a.44.44,0,0,1,0,.88Z" style="opacity:0.2"></path><g style="opacity:0.2"><path d="M149.89,415.33h0l-37.91-.6a.44.44,0,0,1-.44-.44.45.45,0,0,1,.45-.44l37.91.6a.44.44,0,0,1,0,.88Z"></path></g><path d="M152,419.73h0l-37.91-.6a.44.44,0,1,1,0-.87l37.92.59a.45.45,0,0,1,.43.45A.44.44,0,0,1,152,419.73Z" style="opacity:0.2"></path><path d="M158.24,429.06c.37,6.32-3,11.66-7.45,11.92h-.43c-3.34-.05-6.32-2.95-7.65-7.1A15.51,15.51,0,0,1,142,430c-.37-6.32,3.77-11.56,8.25-11.82h0a4.28,4.28,0,0,1,.62,0,6,6,0,0,1,4,1.89C156.8,422,158,425.26,158.24,429.06Z" style="fill:#407BFF"></path><g style="opacity:0.2"><path d="M158.24,429.06c.37,6.32-3,11.66-7.45,11.92h-.43c-3.34-.05-6.32-2.95-7.65-7.1A15.51,15.51,0,0,1,142,430c-.37-6.32,3.77-11.56,8.25-11.82h0a4.28,4.28,0,0,1,.62,0,6,6,0,0,1,4,1.89C156.8,422,158,425.26,158.24,429.06Z" style="fill:#fff"></path></g><g style="opacity:0.2"><path d="M151.71,438.06h-.07c-2,0-4.07-2.08-5-5.1a12.22,12.22,0,0,1-.57-3.11c-.28-4.77,2.72-8.55,5.6-8.74H152a3.28,3.28,0,0,1,2.27,1.09c1.4,1.41,2.34,4,2.51,7a11.09,11.09,0,0,1-1.3,6.15,4.71,4.71,0,0,1-3.56,2.68Zm.12-16h-.16c-2.36.16-4.94,3.57-4.69,7.74a11.29,11.29,0,0,0,.52,2.87c.84,2.59,2.54,4.42,4.16,4.44h.18a3.9,3.9,0,0,0,2.78-2.2,10.25,10.25,0,0,0,1.17-5.63c-.16-2.76-1-5.16-2.24-6.41a2.32,2.32,0,0,0-1.62-.81Z"></path></g><g style="opacity:0.2"><path d="M152,434h0c-1.15,0-2.23-1.09-2.76-2.73a6.12,6.12,0,0,1-.3-1.62c-.15-2.53,1.48-4.54,3-4.64H152a2,2,0,0,1,1.38.62,6.61,6.61,0,0,1,.65,6.92,2.63,2.63,0,0,1-2,1.46Zm0-.95h0a1.68,1.68,0,0,0,1.26-1,4.86,4.86,0,0,0,.56-2.69,5,5,0,0,0-1.06-3.08,1,1,0,0,0-.66-.33c-1.16.07-2.35,1.71-2.24,3.64a5.62,5.62,0,0,0,.25,1.38C150.45,432.18,151.22,433,151.93,433Z"></path></g><path d="M150.36,441h0l-44.24-1.18s-5.65-5.15-4.48-12.1c.48-2.87,2.13-6.06,5.82-9.31l42.76-.22h.63a10.61,10.61,0,0,0-7.25,10.67,16.26,16.26,0,0,0,.74,4.71A12,12,0,0,0,150.36,441Z" style="fill:#407BFF"></path><g style="opacity:0.2"><path d="M150.36,441h0l-44.24-1.18s-5.65-5.15-4.48-12.1c.48-2.87,2.13-6.06,5.82-9.31l42.76-.22h.63a10.61,10.61,0,0,0-7.25,10.67,16.26,16.26,0,0,0,.74,4.71A12,12,0,0,0,150.36,441Z"></path></g><path d="M141.34,424.86h0l-35.84-.26a.44.44,0,0,1-.44-.44.44.44,0,0,1,.44-.44l35.85.26a.45.45,0,0,1,.44.45A.45.45,0,0,1,141.34,424.86Z" style="opacity:0.2"></path><path d="M143.88,421.36h0L108,421.1a.44.44,0,0,1,0-.88l35.85.26a.43.43,0,0,1,.43.44A.44.44,0,0,1,143.88,421.36Z" style="opacity:0.2"></path><path d="M141.23,429.23h0l-37.13-.87a.44.44,0,1,1,0-.88l37.13.87a.44.44,0,0,1,0,.87Z" style="opacity:0.2"></path><path d="M141.48,433.59h0l-37.92-.6a.44.44,0,0,1-.43-.45.45.45,0,0,1,.45-.43l37.91.6a.43.43,0,0,1,.43.45A.44.44,0,0,1,141.48,433.59Z" style="opacity:0.2"></path><path d="M143.58,438h0l-37.91-.6a.43.43,0,0,1-.43-.44.44.44,0,0,1,.44-.44l37.91.6a.45.45,0,0,1,.44.45A.45.45,0,0,1,143.58,438Z" style="opacity:0.2"></path><rect x="64.18" y="377.87" width="32.58" height="59.97" style="fill:#407BFF"></rect><rect x="64.18" y="377.87" width="32.58" height="59.96" style="opacity:0.2"></rect><g style="opacity:0.2"><path d="M68.77,377.87v19.6a.35.35,0,1,1-.69,0v-19.6Z"></path></g><g style="opacity:0.2"><path d="M78.12,396.86v41h-.7v-41a.35.35,0,0,1,.35-.35A.35.35,0,0,1,78.12,396.86Z"></path></g><g style="opacity:0.2"><path d="M72.29,377.87v9.48a.35.35,0,0,1-.69,0v-9.48Z"></path></g><g style="opacity:0.2"><path d="M91.14,377.87v19a.34.34,0,0,1-.34.34.35.35,0,0,1-.35-.34v-19Z"></path></g><g style="opacity:0.2"><path d="M87.32,412.5v25.33h-.7V412.5a.35.35,0,1,1,.7,0Z"></path></g><g style="opacity:0.2"><path d="M91.14,429.32v8.51h-.69v-8.51a.35.35,0,0,1,.35-.35A.34.34,0,0,1,91.14,429.32Z"></path></g></g><g id="freepik--watering-can--inject-2"><path d="M380.15,416.36c-.18-2.56-.86-8.74-3-10.69-1.47-1.33-4.07-1.55-7.91-.67l-.46.11-.09-1,0-.33,0-.35,0-.27,0-.32-.05-.62-.12-1.44H343.32l-.16,1.26-.1.8,0,.13-.06.46-.05.35,0,.33-1.24,9.68a10.82,10.82,0,0,1-1.57-1.14,9.85,9.85,0,0,1-.86-.85,7.69,7.69,0,0,1-.75-.89c-.47-.67-.94-1.48-1.44-2.33a27,27,0,0,0-1.74-2.62,11.32,11.32,0,0,0-2.46-2.32,9.48,9.48,0,0,0-3.11-1.38,12.35,12.35,0,0,0-3.22-.34,3.44,3.44,0,0,0-.09,2.56,9.58,9.58,0,0,1,2.47.54,6.6,6.6,0,0,1,2,1.18,11.43,11.43,0,0,1,2.71,4.16c.38.85.77,1.77,1.31,2.75.14.24.28.49.44.74l.13.18.12.18c.08.11.16.23.24.33a14.53,14.53,0,0,0,1.06,1.29,15.91,15.91,0,0,0,2.53,2.24,12.77,12.77,0,0,0,1.46.91l.06,0-1.61,12.51-.12.94-.13.89-.11.75,0,.19-.07.49-.46,3.07h33.1l-.3-3.07,0-.49,0-.19-.07-.75v-.05l-.09-.95-.19-2.3.51,0c2.63.07,5.8-.36,7.38-2.44C380.58,425.16,380.35,418.93,380.15,416.36Zm-3.94,9.35c-.82,1.08-3.29,1.33-5.65,1.16L369,408.28c2.7-.7,5.26-.95,6-.28.58.53,1.63,3.63,2,8.59C377.37,421.37,376.87,424.85,376.21,425.71Z" style="fill:#263238"></path><polygon points="368.64 403.75 342.93 403.75 342.98 403.4 343.04 402.94 343.06 402.81 368.56 402.81 368.59 403.13 368.61 403.4 368.64 403.75" style="fill:#fff;opacity:0.2"></polygon><polygon points="371.2 434.27 338.97 434.27 339 434.08 339.11 433.33 371.11 433.33 371.18 434.08 371.2 434.27" style="fill:#fff;opacity:0.2"></polygon><path d="M328.21,403.24c0,1.85-1,3.36-2.25,3.36s-2.25-1.51-2.25-3.36,1-3.36,2.25-3.36S328.21,401.38,328.21,403.24Z" style="fill:#263238"></path><path d="M330.33,402.4a10.53,10.53,0,0,0-4.12-2.5v6.7a15.73,15.73,0,0,0,2.88-.83,1.73,1.73,0,0,1,1.56.19Z" style="fill:#263238"></path></g><g id="freepik--plant-1--inject-2"><polygon points="452.65 395.38 451.75 400.62 451.59 401.57 446.04 433.95 445.88 434.89 445.38 437.79 414.16 437.79 413.66 434.89 413.5 433.95 407.94 401.57 407.78 400.62 406.88 395.38 452.65 395.38" style="fill:#263238"></polygon><polygon points="451.75 400.62 451.59 401.57 407.94 401.57 407.78 400.62 451.75 400.62" style="fill:#fff;opacity:0.2"></polygon><path d="M445.09,390.34a36.47,36.47,0,0,0-.06,4.43c0,.2,0,.4,0,.61H416.29c-6.53-16.67-19.92-29.08-19.92-29.08,10.56,4.12,12.69,8,15.58,10.23l.35,1.49a4.46,4.46,0,0,0-.35-1.49l-10.07-42.61,18.81,50.22c.36-2.61.83-5.73,1.46-9.17,0-.52-1.61-36-6.17-45.52a73.82,73.82,0,0,1,9.75,29.71c4.19-15.11,11.12-30.94,22.33-36.75-.24.18-13.94,11-18.15,57.49,2.73-12.73,8.91-31.7,22.56-43.12a88,88,0,0,0-14.8,40.09,59.33,59.33,0,0,1,18.54-18.22C455.91,359.15,446.18,375.13,445.09,390.34Z" style="fill:#407BFF"></path><g style="opacity:0.1"><path d="M445.09,390.34a36.47,36.47,0,0,0-.06,4.43c0,.2,0,.4,0,.61H416.29c-6.53-16.67-19.92-29.08-19.92-29.08,10.56,4.12,12.69,8,15.58,10.23l.35,1.49a4.46,4.46,0,0,0-.35-1.49l-10.07-42.61,18.81,50.22c.36-2.61.83-5.73,1.46-9.17,0-.52-1.61-36-6.17-45.52a73.82,73.82,0,0,1,9.75,29.71c4.19-15.11,11.12-30.94,22.33-36.75-.24.18-13.94,11-18.15,57.49,2.73-12.73,8.91-31.7,22.56-43.12a88,88,0,0,0-14.8,40.09,59.33,59.33,0,0,1,18.54-18.22C455.91,359.15,446.18,375.13,445.09,390.34Z"></path></g></g></svg>
